<svg class="svgicon css34 css35" preserveAspectRatio="xMidYMid meet" xmlns="http://www.w3.org/2000/svg" viewBox="0 0 60 60" style="border-radius: 50%;"><rect x="0" y="0" width="60" height="60" style="stroke: rgb(241, 219, 22); fill: none; stroke-width: 3.5999999999999996; border-color: white" rx="30" ry="30"></rect><g transform="scale(0.8) translate(7.5, 7.5)" transform-origin="0 0"> <g><g><g><path class="st0" d="M34.904,9.5c0.435-0.811,0.684-1.736,0.684-2.722C35.587,3.589,32.998,1,29.809,1 c-3.192,0-5.777,2.589-5.777,5.778c0,0.985,0.247,1.911,0.68,2.722"></path></g><path class="st0" d="M5.774,52.501c0,0,9.759,6.499,24.035,6.499c14.277,0,24.505-6.273,24.505-6.273"></path><path class="st0" d="M34.338,49.237c0.378,0.732,0.593,1.564,0.593,2.447c0,2.949-2.389,5.341-5.34,5.341 c-2.951,0-5.339-2.392-5.339-5.341c0-0.851,0.198-1.659,0.551-2.369"></path><path class="st0" d="M29.857,8.928c-17.695,0-15.57,16.14-18.598,28.069c-0.116,0.467-2.936,2.189-4.392,5.316 c-1.456,3.124-1.202,10.188-1.094,10.188c0.442,0,15.099-3.488,24.035-3.488c8.938,0,24.505,3.714,24.505,3.714 s0.025-7.951-1.417-10.499c-1.436-2.543-4.145-4.478-4.276-4.982C45.534,25.226,47.549,8.928,29.857,8.928z"></path></g></g></g></svg>
    
    